<?xml version="1.0" encoding="utf-8"?>
<!-- Generator: Adobe Illustrator 22.0.1, SVG Export Plug-In . SVG Version: 6.00 Build 0)  -->
<svg version="1.1" id="레이어_1" xmlns="http://www.w3.org/2000/svg" xmlns:xlink="http://www.w3.org/1999/xlink" x="0px"
	 y="0px" viewBox="0 0 500 500" style="enable-background:new 0 0 500 500;" xml:space="preserve">
<style type="text/css">
	.st0{fill:#F3403C;}
</style>
<path class="st0" d="M250,10.5c-2.2,0-4.3,0.7-6.2,2.1l-230,179.5c-4.3,3.4-5.1,9.7-1.7,14.1c3.4,4.3,9.7,5.1,14.1,1.7L40,197.1V460
	c0,5.5,4.5,10,10,10h140V290h120v180h140c5.5,0,10-4.5,10-10V197.1l13.8,10.8c1.9,1.4,4,2.1,6.2,2.1c3,0,5.9-1.3,7.9-3.8
	c3.4-4.4,2.6-10.7-1.7-14.1l-230-179.5C254.3,11.2,252.2,10.5,250,10.5z M350,50v10.5l60,46.8V50H350z"/>
</svg>
