<svg xmlns="http://www.w3.org/2000/svg" viewBox="0 0 62.89 40.2"><defs><style>.cls-1{fill:#ec272f;}</style></defs><title>asending-arrow</title><g id="레이어_2" data-name="레이어 2"><g id="레이어_1-2" data-name="레이어 1"><path class="cls-1" d="M2.14,39.83,26.26,15.71a1.25,1.25,0,0,0-1.76-1.77L.37,38.07a1.25,1.25,0,0,0,1.77,1.76Z"/><path class="cls-1" d="M24.51,15.79,35.15,26.43a1.25,1.25,0,0,0,1.77-1.77L26.28,14a1.25,1.25,0,0,0-1.77,1.77Z"/><path class="cls-1" d="M36.93,26.32,61.06,2.19A1.25,1.25,0,0,0,59.29.43L35.16,24.55a1.25,1.25,0,0,0,1.77,1.77Z"/><path class="cls-1" d="M59.36,0,46.44,1.48c-1.58.18-1.6,2.68,0,2.5L59.36,2.51c1.58-.18,1.6-2.68,0-2.5Z"/><path class="cls-1" d="M62.89,14.91,61.41,2C61.23.42,58.73.4,58.91,2l1.48,12.91c.18,1.58,2.68,1.6,2.5,0Z"/></g></g></svg>